<?xml version="1.0" encoding="UTF-8"?>
<svg width="1217px" height="259px" viewBox="0 0 1217 259" version="1.1" xmlns="http://www.w3.org/2000/svg" xmlns:xlink="http://www.w3.org/1999/xlink">
    <title>logo</title>
    <g id="FMGARAGE" stroke="none" stroke-width="1" fill="none" fill-rule="evenodd">
        <g id="FT-Container" transform="translate(-68.000000, -69.000000)">
            <g id="logo" transform="translate(68.510417, 69.000000)">
                <rect id="white" fill="#FFFFFF" x="0.489583333" y="0" width="1215" height="259"></rect>
                <g id="Icon">
                    <rect id="Square-59ADFF" fill="#59ADFF" x="0.489583333" y="0" width="259" height="259"></rect>
                    <path d="M65.9843354,192.838542 L65.9843354,140.765542 L117.192335,140.765542 L117.192335,123.984542 L65.9843354,123.984542 L65.9843354,86.4435417 L126.015335,86.4435417 L126.015335,69.6625417 L47.3003354,69.6625417 L47.3003354,192.838542 L65.9843354,192.838542 Z M189.4445,192.838542 L189.4445,86.4435417 L223.3525,86.4435417 L223.3525,69.6625417 L136.8525,69.6625417 L136.8525,86.4435417 L170.7605,86.4435417 L170.7605,192.838542 L189.4445,192.838542 Z" id="FT" fill="#FFFFFF" fill-rule="nonzero"></path>
                </g>
                <path d="M380.845146,193.574458 C403.335146,193.574458 420.462146,180.080458 424.787146,155.687458 L406.103146,155.687458 C403.162146,168.316458 394.512146,176.966458 380.845146,176.966458 C373.406146,176.966458 367.178146,174.198458 362.680146,169.354458 C356.514426,162.846198 355.265868,155.490152 355.241513,131.675178 L355.241146,130.948458 C355.241146,106.555458 356.452146,99.1164583 362.680146,92.5424583 C367.178146,87.6984583 373.406146,84.9304583 380.845146,84.9304583 C394.512146,84.9304583 402.989146,93.5804583 405.757146,106.209458 L424.787146,106.209458 C420.462146,81.8164583 403.508146,68.3224583 380.845146,68.3224583 C367.351146,68.3224583 356.971146,72.8204583 349.013146,80.7784583 C337.314886,92.6462583 336.582473,104.680208 336.557856,129.417925 L336.557856,132.478992 C336.582473,157.216709 337.314886,169.250658 349.013146,181.118458 C356.971146,189.076458 367.351146,193.574458 380.845146,193.574458 Z M479.22031,193.574458 C491.15731,193.574458 499.80731,189.076458 505.51631,183.194458 C513.82031,174.544458 515.89631,163.472458 515.89631,148.594458 C515.89631,133.889458 513.82031,122.817458 505.51631,114.167458 C499.80731,108.285458 491.15731,103.787458 479.22031,103.787458 C467.28331,103.787458 458.80631,108.285458 453.09731,114.167458 C444.79331,122.817458 442.71731,133.889458 442.71731,148.594458 C442.71731,163.472458 444.79331,174.544458 453.09731,183.194458 C458.80631,189.076458 467.28331,193.574458 479.22031,193.574458 Z M479.22031,177.831458 C474.03031,177.831458 469.70531,175.928458 466.41831,172.641458 C461.151078,167.374226 460.389514,158.435709 460.363995,149.10384 L460.36331,148.594458 C460.36331,139.079458 461.05531,129.910458 466.41831,124.547458 C469.70531,121.260458 474.03031,119.530458 479.22031,119.530458 C484.41031,119.530458 488.90831,121.260458 492.19531,124.547458 C497.55831,129.910458 498.25031,139.079458 498.25031,148.594458 C498.25031,158.109458 497.55831,167.278458 492.19531,172.641458 C488.90831,175.928458 484.41031,177.831458 479.22031,177.831458 Z M556.662475,192.536458 L556.662475,139.079458 C556.662475,125.585458 564.966475,119.530458 574.827475,119.530458 C584.688475,119.530458 592.473475,125.412458 592.473475,139.079458 L592.473475,192.536458 L610.119475,192.536458 L610.119475,136.484458 C610.119475,126.623458 608.043475,118.319458 601.296475,111.745458 C596.106475,106.728458 588.667475,103.787458 579.671475,103.787458 C570.848475,103.787458 562.371475,107.074458 556.316475,113.648458 L556.316475,104.825458 L539.016475,104.825458 L539.016475,192.536458 L556.662475,192.536458 Z M673.20264,192.536458 L673.20264,177.485458 L665.93664,177.485458 C659.36264,177.485458 656.24864,173.679458 656.24864,167.278458 L656.24864,118.319458 L673.20264,118.319458 L673.20264,104.825458 L656.24864,104.825458 L656.24864,79.7404583 L638.60264,79.7404583 L638.60264,104.825458 L628.56864,104.825458 L628.56864,118.319458 L638.60264,118.319458 L638.60264,168.143458 C638.60264,180.772458 646.21464,192.536458 662.64964,192.536458 L673.20264,192.536458 Z M717.947804,193.574458 C728.846804,193.574458 734.901804,190.979458 741.302804,184.578458 L741.302804,192.536458 L758.602804,192.536458 L758.602804,133.889458 C758.602804,114.167458 746.665804,103.787458 722.445804,103.787458 C707.740804,103.787458 699.263804,106.901458 691.132804,116.589458 L702.550804,127.488458 C707.567804,121.260458 712.411804,118.838458 721.753804,118.838458 C735.593804,118.838458 740.956804,124.028458 740.956804,135.273458 L740.956804,141.501458 L717.947804,141.501458 C697.706804,141.501458 687.499804,152.054458 687.499804,166.759458 C687.499804,174.198458 689.921804,180.945458 694.419804,185.616458 C699.782804,190.979458 707.048804,193.574458 717.947804,193.574458 Z M721.234804,178.869458 C709.643804,178.869458 704.626804,174.544458 704.626804,166.413458 C704.626804,158.282458 709.989804,153.784458 720.715804,153.784458 L740.956804,153.784458 L740.956804,160.877458 C740.956804,167.105458 739.918804,171.257458 737.150804,173.852458 C732.479804,178.177458 727.462804,178.869458 721.234804,178.869458 Z M803.174969,87.5254583 L803.174969,68.8414583 L784.490969,68.8414583 L784.490969,87.5254583 L803.174969,87.5254583 Z M802.655969,192.536458 L802.655969,104.825458 L785.009969,104.825458 L785.009969,192.536458 L802.655969,192.536458 Z M847.574134,192.536458 L847.574134,139.079458 C847.574134,125.585458 855.878134,119.530458 865.739134,119.530458 C875.600134,119.530458 883.385134,125.412458 883.385134,139.079458 L883.385134,192.536458 L901.031134,192.536458 L901.031134,136.484458 C901.031134,126.623458 898.955134,118.319458 892.208134,111.745458 C887.018134,106.728458 879.579134,103.787458 870.583134,103.787458 C861.760134,103.787458 853.283134,107.074458 847.228134,113.648458 L847.228134,104.825458 L829.928134,104.825458 L829.928134,192.536458 L847.574134,192.536458 Z M962.384298,193.574458 C977.781298,193.574458 986.258298,188.903458 995.254298,179.907458 L984.009298,169.354458 C977.781298,175.582458 972.591298,178.350458 962.730298,178.350458 C948.198298,178.350458 940.413298,169.008458 940.413298,153.784458 L997.330298,153.784458 L997.330298,146.345458 C997.330298,120.741458 983.663298,103.787458 960.135298,103.787458 C937.645298,103.787458 922.940298,120.049458 922.940298,148.594458 C922.940298,181.983458 940.413298,193.574458 962.384298,193.574458 Z M979.857298,141.501458 L940.413298,141.501458 C940.586298,136.138458 940.932298,133.370458 942.662298,129.564458 C945.603298,122.990458 951.658298,118.492458 960.135298,118.492458 C968.439298,118.492458 974.494298,122.990458 977.435298,129.564458 C979.165298,133.370458 979.511298,136.138458 979.857298,141.501458 Z M1037.57746,192.536458 L1037.57746,139.252458 C1037.57746,127.142458 1045.53546,119.530458 1055.05046,119.530458 C1061.10546,119.530458 1064.21946,121.433458 1068.19846,125.412458 L1081.51946,112.091458 C1075.46446,106.036458 1069.06346,103.787458 1060.58646,103.787458 C1050.72546,103.787458 1041.72946,108.112458 1037.23146,114.340458 L1037.23146,104.825458 L1019.93146,104.825458 L1019.93146,192.536458 L1037.57746,192.536458 Z" id="Container" fill="#636363" fill-rule="nonzero"></path>
            </g>
        </g>
    </g>
</svg>